<svg width="29" height="30" viewBox="0 0 29 30" fill="none" xmlns="http://www.w3.org/2000/svg">
<path fill-rule="evenodd" clip-rule="evenodd" d="M17.1789 20.7636C15.3359 21.9823 13.1062 22.6533 10.7304 22.5551C4.72123 22.307 0.0508278 17.2339 0.299 11.2245C0.547173 5.21506 5.62 0.545458 11.6291 0.793631C17.6373 1.04172 22.3088 6.11382 22.0606 12.1233C21.9731 14.2416 21.286 16.1935 20.1697 17.8223L27.5063 24.9458C28.4115 25.9273 28.3791 27.4443 27.4491 28.3843L27.4063 28.4236L27.3611 28.4628C26.3501 29.3123 24.8355 29.2212 23.9312 28.239L17.1789 20.7636ZM10.8341 20.0434C6.21188 19.8525 2.61909 15.9501 2.81 11.3279C3.00091 6.70563 6.90324 3.11283 11.5255 3.30375C16.1477 3.49466 19.7406 7.39699 19.5497 12.0192C19.3588 16.6415 15.4564 20.2343 10.8341 20.0434Z" fill="white"/>
</svg>
