<svg width="33" height="33" viewBox="0 0 33 33" fill="none" xmlns="http://www.w3.org/2000/svg">
<path fill-rule="evenodd" clip-rule="evenodd" d="M2.38696 13.7031H7.03276V31.8643H2.38696C1.68748 31.8643 1.12036 31.3242 1.12036 30.658V14.9094C1.12036 14.2432 1.68748 13.7031 2.38696 13.7031Z" stroke="white" stroke-width="1.60838" stroke-linecap="round" stroke-linejoin="round"/>
<path fill-rule="evenodd" clip-rule="evenodd" d="M29.0607 28.4641C28.7666 30.7275 27.2544 31.8642 24.5659 31.8642H10.4983C8.58697 31.8642 7.03271 30.4013 7.03271 28.6025V13.7249C11.494 13.29 13.7245 11.7326 13.7245 7.54477V5.53792C13.7245 3.42266 15.525 1.70789 17.746 1.70789C18.5924 1.70789 19.4172 1.96217 20.103 2.43463C21.0482 3.08699 21.6505 4.32255 21.6505 6.10165V11.9109C21.6505 12.405 22.487 12.8103 23.3235 12.8103H27.8109C29.7013 12.8103 31.2346 14.2336 31.2766 16.0029C31.3047 17.1824 30.566 20.8335 29.0607 28.4641Z" stroke="white" stroke-width="1.60838" stroke-linecap="round" stroke-linejoin="round"/>
</svg>
