<svg width="18.000000" height="18.000000" viewBox="0 0 18 18" fill="none" xmlns="http://www.w3.org/2000/svg" xmlns:xlink="http://www.w3.org/1999/xlink">
	<desc>
			Created with Pixso.
	</desc>
	<defs/>
	<path id="Vector" d="M5.205 2.75C5.2048 3.14746 5.04657 3.52881 4.76512 3.81006C4.48367 4.09131 4.10207 4.24902 3.70424 4.24902C3.30643 4.24902 2.92496 4.09082 2.64381 3.80908C2.36264 3.52783 2.2048 3.146 2.20499 2.74805C2.20519 2.35059 2.36342 1.96924 2.64487 1.68799C2.92631 1.40674 3.30792 1.24902 3.70575 1.24902C4.10358 1.24902 4.48502 1.40723 4.76619 1.68896C5.04735 1.97021 5.2052 2.35205 5.205 2.75ZM5.25 5.35986L2.24999 5.35986L2.24999 14.75L5.25 14.75L5.25 5.35986ZM9.98999 5.35986L7.00499 5.35986L7.00499 14.75L9.95999 14.75L9.95999 9.82227C9.95999 7.07715 13.5375 6.82227 13.5375 9.82227L13.5375 14.75L16.5 14.75L16.5 8.80225C16.5 4.1748 11.205 4.34717 9.95999 6.61963L9.98999 5.35986Z" fill="#75757F" fill-opacity="1.000000" fill-rule="nonzero"/>
</svg>
