<svg width="20.000000" height="17.777832" viewBox="0 0 20 17.7778" fill="none" xmlns="http://www.w3.org/2000/svg" xmlns:xlink="http://www.w3.org/1999/xlink">
	<desc>
			Created with Pixso.
	</desc>
	<defs>
		<clipPath id="clip9_141">
			<rect id="Frame" width="20.000000" height="17.777779" fill="white" fill-opacity="0"/>
		</clipPath>
	</defs>
	<rect id="Frame" width="20.000000" height="17.777779" fill="#75757F" fill-opacity="0"/>
	<g clip-path="url(#clip9_141)">
		<path id="Vector" d="M17.6656 4.87744C17.4817 4.13867 16.9395 3.55664 16.2511 3.35889C15.0034 3 10 3 10 3C10 3 4.99667 3 3.7489 3.35889C3.06052 3.55664 2.51834 4.13867 2.33435 4.87744C2 6.21729 2 9.01221 2 9.01221C2 9.01221 2 11.8071 2.33435 13.1465C2.51834 13.8857 3.06052 14.4434 3.7489 14.6411C4.99667 15 10 15 10 15C10 15 15.0033 15 16.2511 14.6411C16.9395 14.4434 17.4817 13.8857 17.6656 13.1465C18 11.8071 18 9.01221 18 9.01221C18 9.01221 18 6.21729 17.6656 4.87744ZM8.36362 11.5498L8.36362 6.47461L12.5454 9.01221L8.36362 11.5498Z" fill="#75757F" fill-opacity="1.000000" fill-rule="nonzero"/>
	</g>
</svg>
