<svg width="20.000000" height="20.000000" viewBox="0 0 20 20" fill="none" xmlns="http://www.w3.org/2000/svg" xmlns:xlink="http://www.w3.org/1999/xlink">
	<desc>
			Created with Pixso.
	</desc>
	<defs>
		<clipPath id="clip9_143">
			<rect id="Frame" width="20.000000" height="20.000000" fill="white" fill-opacity="0"/>
		</clipPath>
	</defs>
	<rect id="Frame" width="20.000000" height="20.000000" fill="#FFFFFF" fill-opacity="0"/>
	<g clip-path="url(#clip9_143)">
		<path id="Vector" d="M6.79999 2L13.2 2C15.851 2 18 4.14893 18 6.7998L18 13.2002C18 15.8511 15.851 18 13.2 18L6.79999 18C4.14905 18 2 15.8511 2 13.2002L2 6.7998C2 4.14893 4.14905 2 6.79999 2ZM6.79999 3.6001C5.03268 3.6001 3.60001 5.03271 3.60001 6.7998L3.60001 13.2002C3.60001 14.9673 5.03268 16.3999 6.79999 16.3999L13.2 16.3999C14.9673 16.3999 16.4 14.9673 16.4 13.2002L16.4 6.7998C16.4 5.03271 14.9673 3.6001 13.2 3.6001L6.79999 3.6001ZM10 14C7.79086 14 6 12.209 6 10C6 7.79102 7.79086 6 10 6C12.2091 6 14 7.79102 14 10C14 12.209 12.2091 14 10 14ZM10 12.3999C11.3255 12.3999 12.4 11.3257 12.4 10C12.4 8.67432 11.3255 7.6001 10 7.6001C8.67453 7.6001 7.60001 8.67432 7.60001 10C7.60001 11.3257 8.67453 12.3999 10 12.3999ZM14 6.7998C13.5582 6.7998 13.2 6.44189 13.2 6C13.2 5.55811 13.5582 5.2002 14 5.2002C14.4418 5.2002 14.8 5.55811 14.8 6C14.8 6.44189 14.4418 6.7998 14 6.7998Z" fill="#75757F" fill-opacity="1.000000" fill-rule="evenodd"/>
	</g>
</svg>
