<svg width="99.935974" height="28.707710" viewBox="0 0 99.936 28.7077" fill="none" xmlns="http://www.w3.org/2000/svg" xmlns:xlink="http://www.w3.org/1999/xlink">
	<desc>
			Created with Pixso.
	</desc>
	<defs/>
	<path id="Vector" d="M13.5465 8.31949C13.1999 7.6809 12.6982 7.19745 12.0414 6.86905C11.4028 6.52244 10.6457 6.34908 9.76993 6.34908C8.2556 6.34908 7.0424 6.85084 6.13014 7.85426C5.21788 8.83945 4.76181 10.1622 4.76181 11.8224C4.76181 13.5921 5.23621 14.9788 6.18488 15.9822C7.15187 16.9674 8.47453 17.46 10.1531 17.46C11.3025 17.46 12.2695 17.1681 13.0539 16.5842C13.8567 16.0004 14.4405 15.1612 14.8054 14.0665L8.86682 14.0665L8.86682 10.6183L19.0472 10.6183L19.0472 14.9696C18.7006 16.1372 18.1076 17.2228 17.2684 18.2262C16.4474 19.2297 15.3983 20.0416 14.1212 20.6619C12.8441 21.2822 11.4028 21.5924 9.79729 21.5924C7.89983 21.5924 6.20309 21.1819 4.70708 20.3609C3.22928 19.5216 2.07071 18.3631 1.23151 16.8853C0.410492 15.4075 0 13.7199 0 11.8224C0 9.92497 0.410492 8.23739 1.23151 6.75959C2.07071 5.26357 3.22928 4.10501 4.70708 3.28401C6.18489 2.4448 7.87247 2.02514 9.76993 2.02514C12.0687 2.02514 14.0026 2.58163 15.5717 3.69451C17.159 4.80739 18.208 6.34908 18.7188 8.31949L13.5465 8.31949ZM26.3191 8.72999C26.8665 7.89078 27.5506 7.23398 28.3716 6.75959C29.1926 6.26698 30.1049 6.02068 31.1083 6.02068L31.1083 10.9741L29.8221 10.9741C28.6544 10.9741 27.7787 11.2295 27.1949 11.7403C26.611 12.2329 26.3191 13.1087 26.3191 14.3675L26.3191 21.4555L21.6394 21.4555L21.6394 6.18488L26.3191 6.18488L26.3191 8.72999ZM40.2963 21.6745C38.8001 21.6745 37.4501 21.3552 36.246 20.7166C35.0601 20.078 34.1204 19.1659 33.4272 17.9799C32.7521 16.794 32.4146 15.4075 32.4146 13.8202C32.4146 12.2511 32.7612 10.8738 33.4546 9.68783C34.1478 8.48369 35.0966 7.56238 36.3007 6.92379C37.5049 6.28519 38.8549 5.96595 40.351 5.96595C41.847 5.96595 43.1971 6.28519 44.4013 6.92379C45.6054 7.56238 46.5541 8.48369 47.2474 9.68783C47.9406 10.8738 48.2874 12.2511 48.2874 13.8202C48.2874 15.3893 47.9316 16.7758 47.22 17.9799C46.5267 19.1659 45.5689 20.078 44.3465 20.7166C43.1424 21.3552 41.7923 21.6745 40.2963 21.6745ZM40.2963 17.6242C41.1902 17.6242 41.9473 17.2958 42.5677 16.639C43.2062 15.9822 43.5255 15.0425 43.5255 13.8202C43.5255 12.5979 43.2153 11.6582 42.5951 11.0014C41.993 10.3446 41.2449 10.0162 40.351 10.0162C39.4387 10.0162 38.6816 10.3446 38.0796 11.0014C37.4775 11.64 37.1765 12.5795 37.1765 13.8202C37.1765 15.0425 37.4683 15.9822 38.0522 16.639C38.6543 17.2958 39.4022 17.6242 40.2963 17.6242ZM72.6903 6.18488L68.5579 21.4555L63.3856 21.4555L60.9778 11.5488L58.4875 21.4555L53.3425 21.4555L49.1828 6.18488L53.8625 6.18488L56.0245 17.1042L58.5969 6.18488L63.5498 6.18488L66.1496 17.0495L68.2842 6.18488L72.6903 6.18488ZM82.1381 10.071L79.6204 10.071L79.6204 21.4555L74.9407 21.4555L74.9407 10.071L73.2439 10.071L73.2439 6.18488L74.9407 6.18488L74.9407 5.74702C74.9407 3.86787 75.4785 2.4448 76.5553 1.47781C77.6321 0.492603 79.2099 0 81.2897 0C81.636 0 81.8918 0.00912476 82.056 0.0273666L82.056 3.99554C81.1624 3.94081 80.533 4.06849 80.1677 4.37868C79.8025 4.68887 79.6204 5.24526 79.6204 6.04805L79.6204 6.18488L82.1381 6.18488L82.1381 10.071ZM99.936 6.18488L90.3576 28.7077L85.3221 28.7077L88.8251 20.9356L82.6128 6.18488L87.8399 6.18488L91.3702 15.7359L94.8731 6.18488L99.936 6.18488Z" fill="#FFFFFF" fill-opacity="1.000000" fill-rule="nonzero"/>
</svg>
